HIERARCHY
ROOT hip
{
  OFFSET 0 0 0
  CHANNELS 6 Xposition Yposition Zposition Zrotation Yrotation Xrotation
  JOINT abdomen
  {
    OFFSET 0 20.6881 -0.73152
    CHANNELS 3 Zrotation Xrotation Yrotation
    JOINT chest
    {
      OFFSET 0 11.7043 -0.48768
      CHANNELS 3 Zrotation Xrotation Yrotation
      JOINT neck
      {
        OFFSET 0 22.1894 -2.19456
        CHANNELS 3 Zrotation Xrotation Yrotation
        JOINT head
        {
          OFFSET -0.24384 7.07133 1.2192
          CHANNELS 3 Zrotation Xrotation Yrotation
          JOINT leftEye
          {
            OFFSET 4.14528 8.04674 8.04672
            CHANNELS 3 Zrotation Xrotation Yrotation
            End Site
            {
              OFFSET 1 0 0
            }
          }
          JOINT rightEye
          {
            OFFSET -3.6576 8.04674 8.04672
            CHANNELS 3 Zrotation Xrotation Yrotation
            End Site
            {
              OFFSET 1 0 0
            }
          }
        }
      }
      JOINT rCollar
      {
        OFFSET -2.68224 19.2634 -4.8768
        CHANNELS 3 Zrotation Xrotation Yrotation
        JOINT rShldr
        {
          OFFSET -8.77824 -1.95073 1.46304
          CHANNELS 3 Zrotation Xrotation Yrotation
          JOINT rForeArm
          {
            OFFSET -28.1742 -1.7115 0.48768
            CHANNELS 3 Zrotation Xrotation Yrotation
            JOINT rHand
            {
              OFFSET -22.5879 0.773209 7.07136
              CHANNELS 3 Zrotation Xrotation Yrotation
              JOINT rThumb1
              {
                OFFSET -1.2192 -0.487915 3.41376
                CHANNELS 3 Zrotation Xrotation Yrotation
                JOINT rThumb2
                {
                  OFFSET -3.37035 -0.52449 3.41376
                  CHANNELS 3 Zrotation Xrotation Yrotation
                  End Site
                  {
                    OFFSET -1.78271 -1.18214 1.43049
                  }
                }
              }
              JOINT rIndex1
              {
                OFFSET -7.75947 0.938293 5.60832
                CHANNELS 3 Zrotation Xrotation Yrotation
                JOINT rIndex2
                {
                  OFFSET -2.54057 -0.884171 1.56538
                  CHANNELS 3 Zrotation Xrotation Yrotation
                  End Site
                  {
                    OFFSET -1.62519 -0.234802 1.16502
                  }
                }
              }
              JOINT rMid1
              {
                OFFSET -8.24714 1.18213 3.41376
                CHANNELS 3 Zrotation Xrotation Yrotation
                JOINT rMid2
                {
                  OFFSET -3.10165 -0.590103 1.0647
                  CHANNELS 3 Zrotation Xrotation Yrotation
                  End Site
                  {
                    OFFSET -2.48547 -0.328903 0.83742
                  }
                }
              }
              JOINT rRing1
              {
                OFFSET -8.82822 0.546677 1.51678
                CHANNELS 3 Zrotation Xrotation Yrotation
                JOINT rRing2
                {
                  OFFSET -2.60934 -0.819778 -0.0198488
                  CHANNELS 3 Zrotation Xrotation Yrotation
                  End Site
                  {
                    OFFSET -2.33842 -0.294052 0.168128
                  }
                }
              }
              JOINT rPinky1
              {
                OFFSET -8.27202 -0.0477905 -0.4584
                CHANNELS 3 Zrotation Xrotation Yrotation
                JOINT rPinky2
                {
                  OFFSET -1.82734 -0.647385 -0.700984
                  CHANNELS 3 Zrotation Xrotation Yrotation
                  End Site
                  {
                    OFFSET -1.69225 -0.51767 -0.607171
                  }
                }
              }
            }
          }
        }
      }
      JOINT lCollar
      {
        OFFSET 2.68224 19.2634 -4.8768
        CHANNELS 3 Zrotation Xrotation Yrotation
        JOINT lShldr
        {
          OFFSET 8.77824 -1.95073 1.46304
          CHANNELS 3 Zrotation Xrotation Yrotation
          JOINT lForeArm
          {
            OFFSET 28.1742 -1.7115 0.48768
            CHANNELS 3 Zrotation Xrotation Yrotation
            JOINT lHand
            {
              OFFSET 22.5879 0.773209 7.07136
              CHANNELS 3 Zrotation Xrotation Yrotation
              JOINT lThumb1
              {
                OFFSET 1.2192 -0.487915 3.41376
                CHANNELS 3 Zrotation Xrotation Yrotation
                JOINT lThumb2
                {
                  OFFSET 3.37035 -0.52449 3.41376
                  CHANNELS 3 Zrotation Xrotation Yrotation
                  End Site
                  {
                    OFFSET 1.78271 -1.18214 1.43049
                  }
                }
              }
              JOINT lIndex1
              {
                OFFSET 7.75947 0.938293 5.60832
                CHANNELS 3 Zrotation Xrotation Yrotation
                JOINT lIndex2
                {
                  OFFSET 2.54057 -0.884171 1.56538
                  CHANNELS 3 Zrotation Xrotation Yrotation
                  End Site
                  {
                    OFFSET 1.62519 -0.234802 1.16502
                  }
                }
              }
              JOINT lMid1
              {
                OFFSET 8.24714 1.18213 3.41376
                CHANNELS 3 Zrotation Xrotation Yrotation
                JOINT lMid2
                {
                  OFFSET 3.10165 -0.590103 1.0647
                  CHANNELS 3 Zrotation Xrotation Yrotation
                  End Site
                  {
                    OFFSET 2.48547 -0.328903 0.83742
                  }
                }
              }
              JOINT lRing1
              {
                OFFSET 8.82822 0.546677 1.51678
                CHANNELS 3 Zrotation Xrotation Yrotation
                JOINT lRing2
                {
                  OFFSET 2.60934 -0.819778 -0.0198488
                  CHANNELS 3 Zrotation Xrotation Yrotation
                  End Site
                  {
                    OFFSET 2.33842 -0.294052 0.168128
                  }
                }
              }
              JOINT lPinky1
              {
                OFFSET 8.27202 -0.0477905 -0.4584
                CHANNELS 3 Zrotation Xrotation Yrotation
                JOINT lPinky2
                {
                  OFFSET 1.82734 -0.647385 -0.700984
                  CHANNELS 3 Zrotation Xrotation Yrotation
                  End Site
                  {
                    OFFSET 1.69225 -0.51767 -0.607171
                  }
                }
              }
            }
          }
        }
      }
    }
  }
  JOINT rButtock
  {
    OFFSET -8.77824 4.35084 1.2192
    CHANNELS 3 Zrotation Xrotation Yrotation
    JOINT rThigh
    {
      OFFSET 0 -1.70687 -2.19456
      CHANNELS 3 Zrotation Xrotation Yrotation
      JOINT rShin
      {
        OFFSET 0 -36.8199 0.73152
        CHANNELS 3 Zrotation Xrotation Yrotation
        JOINT rFoot
        {
          OFFSET 0.73152 -45.1104 -5.12064
          CHANNELS 3 Zrotation Xrotation Yrotation
          End Site
          {
            OFFSET -1.1221 -3.69964 12.103
          }
        }
      }
    }
  }
  JOINT lButtock
  {
    OFFSET 8.77824 4.35084 1.2192
    CHANNELS 3 Zrotation Xrotation Yrotation
    JOINT lThigh
    {
      OFFSET 0 -1.70687 -2.19456
      CHANNELS 3 Zrotation Xrotation Yrotation
      JOINT lShin
      {
        OFFSET 0 -36.8199 0.73152
        CHANNELS 3 Zrotation Xrotation Yrotation
        JOINT lFoot
        {
          OFFSET -0.73152 -45.1104 -5.12064
          CHANNELS 3 Zrotation Xrotation Yrotation
          End Site
          {
            OFFSET 1.1221 -3.69964 12.103
          }
        }
      }
    }
  }
}
MOTION
Frames:	4
Frame Time:	0.00833333
-201.987 77.0168 73.7543 0.0 0.0 0.0 -3.1312 0.00208552 -0.0845028 -0.863227 0.0181966 -0.149331 -1.94487e-15 -7.95139e-16 -2.48481e-16 -5.50385e-15 3.18055e-15 -5.96354e-16 -0.0 0.0 0.0 -0.0 0.0 0.0 -1.04526e-15 -4.89197e-17 -4.96962e-17 -1.59264e-14 -5.77718e-16 -9.93923e-16 -3.09806e-13 6.67917e-14 -4.13472e-14 -3.49531e-12 -2.26291e-13 -4.10292e-13 -8.24801e-12 -3.50153e-13 -9.7325e-13 -1.42521e-11 -6.04305e-13 -1.69683e-12 -8.24161e-12 -3.49463e-13 -9.92333e-13 7.73091 5.47488 0.417314 -8.24618e-12 -3.49762e-13 -9.79611e-13 2.90554 0.965183 0.102902 -8.24195e-12 -3.49463e-13 -9.81996e-13 10.2786 0.731801 0.0259123 -8.24479e-12 -3.50259e-13 -9.82791e-13 2.22167 -0.733487 -0.20892 -1.04204e-15 -4.96962e-17 -1.98785e-16 -2.14561e-14 -5.65294e-16 -3.37934e-15 -3.04687e-13 -1.18277e-13 -3.81667e-14 -3.4967e-12 -4.49005e-14 -4.13472e-13 -8.2347e-12 -3.59626e-13 -9.92333e-13 -1.42167e-11 -6.23389e-13 -1.71273e-12 -8.23803e-12 -3.60595e-13 -9.85972e-13 -7.73091 5.47488 -0.417314 -8.2351e-12 -3.59105e-13 -9.92333e-13 -2.90554 0.965183 -0.102902 -8.24471e-12 -3.59204e-13 -9.92333e-13 -10.2786 0.731801 -0.0259123 -8.22849e-12 -3.57415e-13 -9.98694e-13 -2.22167 -0.733487 0.20892 -2.03217e-16 0.0 -3.88251e-19 -1.91884 -1.93503 0.0146255 -0.00850024 -2.07867 -0.0697577 -0.458603 4.00011 0.13245 2.03217e-16 0.0 3.88251e-19 -2.83828 -9.32625 0.32236 -0.00902457 11.3079 -0.235077 0.527407 -1.99509 -0.0183664
-198.367 74.0143 67.5409 -165.244 75.3919 -154.163 0.119752 10.1293 0.676582 -0.0838541 -0.551156 0.53217 -2.71448 1.25077 -0.555452 4.65436 -14.1807 2.1267 -0.0 0.0 0.0 -0.0 0.0 0.0 -1.30616e-15 2.38504e-14 2.78636e-14 16.8332 12.7431 11.9378 -17.258 -14.7523 15.2057 0.134775 8.18337 1.10866 1.29067e-10 -2.51537e-10 -9.62482e-11 2.19849e-10 -4.32733e-10 -1.69997e-10 1.29072e-10 -2.51529e-10 -9.62609e-11 7.73091 5.47488 0.417314 1.29068e-10 -2.51536e-10 -9.62527e-11 2.90554 0.965183 0.102902 1.29075e-10 -2.51536e-10 -9.62532e-11 10.2786 0.731801 0.0259123 1.29068e-10 -2.51537e-10 -9.62515e-11 2.22167 -0.733487 -0.20892 -1.25404e-15 2.38484e-14 2.77487e-14 -23.125 12.5283 4.00533 4.38754 -2.02744 -6.81664 -0.0786001 -6.23996 0.858457 3.25953e-10 -8.23516e-11 -9.6506e-11 5.6492e-10 -1.42419e-10 -1.61572e-10 3.2595e-10 -8.23522e-11 -9.65015e-11 -7.73091 5.47488 -0.417314 3.25952e-10 -8.23512e-11 -9.65041e-11 -2.90554 0.965183 -0.102902 3.25942e-10 -8.23513e-11 -9.65055e-11 -10.2786 0.731801 -0.0259123 3.25958e-10 -8.23503e-11 -9.65115e-11 -2.22167 -0.733487 0.20892 -2.03217e-16 0.0 -3.88251e-19 -4.5927 -4.2767 -2.16074 0.0460451 7.7199 0.132676 -0.958971 -3.97194 -3.09786 2.03217e-16 0.0 3.88251e-19 4.08393 -20.9321 7.94958 0.113895 29.7604 -0.489432 0.818979 -5.49917 1.26299
-197.703 73.8005 66.9472 -163.613 75.2899 -152.751 3.25997 20.8236 1.48398 0.772767 -1.16915 1.23193 -5.56121 2.55524 -1.11598 10.8339 -29.0818 4.89424 -0.0 0.0 0.0 -0.0 0.0 0.0 1.67442e-15 6.85109e-14 6.05952e-14 28.5152 24.5078 26.3857 -26.7408 -27.0777 34.6093 -0.0809005 16.7485 2.34826 2.62413e-10 -5.08233e-10 -2.53024e-10 4.4533e-10 -8.72159e-10 -4.44291e-10 2.62418e-10 -5.08218e-10 -2.5303e-10 7.73091 5.47488 0.417314 2.62414e-10 -5.08231e-10 -2.53027e-10 2.90554 0.965183 0.102902 2.62423e-10 -5.08232e-10 -2.53025e-10 10.2786 0.731801 0.0259123 2.62412e-10 -5.08234e-10 -2.53021e-10 2.22167 -0.733487 -0.20892 1.7858e-15 6.85081e-14 6.05206e-14 -49.6883 25.4974 8.82125 8.48514 -4.05999 -14.0201 0.0462372 -12.7823 1.79367 6.91087e-10 -1.80071e-10 -1.68131e-10 1.19714e-09 -3.11321e-10 -2.79645e-10 6.91083e-10 -1.80072e-10 -1.68129e-10 -7.73091 5.47488 -0.417314 6.91085e-10 -1.80071e-10 -1.68128e-10 -2.90554 0.965183 -0.102902 6.91075e-10 -1.80071e-10 -1.68131e-10 -10.2786 0.731801 -0.0259123 6.91091e-10 -1.80071e-10 -1.68136e-10 -2.22167 -0.733487 0.20892 -2.03217e-16 0.0 -3.88251e-19 -7.63196 -6.80969 -4.51131 0.024831 18.1634 0.36179 -2.47242 -12.3649 -6.60632 2.03217e-16 0.0 3.88251e-19 15.1919 -32.2524 17.6888 0.525081 49.2918 -0.96708 1.28863 -9.19615 2.60199
-197.096 73.4893 66.3587 -162.433 75.1243 -151.609 5.70844 30.3617 2.51178 1.51553 -1.68901 1.89592 -8.07056 3.7509 -1.66954 18.052 -42.2647 8.37194 -0.0 0.0 0.0 -0.0 0.0 0.0 -1.82797e-15 7.16492e-14 8.36903e-14 33.6048 31.0999 41.9514 -28.0841 -30.9921 54.2426 -0.625114 24.5114 3.6186 4.03696e-10 -7.5391e-10 -2.86798e-10 6.88052e-10 -1.29699e-09 -5.06598e-10 4.037e-10 -7.53889e-10 -2.86798e-10 7.73091 5.47488 0.417314 4.03696e-10 -7.53907e-10 -2.86799e-10 2.90554 0.965183 0.102902 4.03708e-10 -7.53909e-10 -2.86796e-10 10.2786 0.731801 0.0259123 4.03693e-10 -7.53911e-10 -2.86789e-10 2.22167 -0.733487 -0.20892 -1.67803e-15 7.16446e-14 8.36437e-14 -75.6855 36.7557 14.6986 11.7434 -5.73868 -20.5446 0.351544 -18.7026 2.70294 9.94328e-10 -2.46336e-10 -2.87533e-10 1.72319e-09 -4.26011e-10 -4.81289e-10 9.94325e-10 -2.46336e-10 -2.87532e-10 -7.73091 5.47488 -0.417314 9.94327e-10 -2.46335e-10 -2.87528e-10 -2.90554 0.965183 -0.102902 9.94316e-10 -2.46336e-10 -2.87532e-10 -10.2786 0.731801 -0.0259123 9.94332e-10 -2.46336e-10 -2.87537e-10 -2.22167 -0.733487 0.20892 -2.03217e-16 0.0 -3.88251e-19 -10.4784 -8.91114 -6.57307 -0.0721907 27.3158 0.600847 -4.77183 -19.6466 -10.1309 2.03217e-16 0.0 3.88251e-19 29.5042 -40.8331 29.1548 1.60863 66.6547 -2.05353 1.88206 -12.4832 3.90058
